<?xml version="1.0" standalone="no"?>
<!DOCTYPE svg PUBLIC "-//W3C//DTD SVG 20010904//EN"
 "http://www.w3.org/TR/2001/REC-SVG-20010904/DTD/svg10.dtd">
<svg version="1.0" xmlns="http://www.w3.org/2000/svg"
 width="700.000000pt" height="700.000000pt" viewBox="0 0 700.000000 700.000000"
 preserveAspectRatio="xMidYMid meet">
<metadata>
Created by potrace 1.14, written by Peter Selinger 2001-2017
</metadata>
<g transform="translate(0.000000,700.000000) scale(0.100000,-0.100000)"
fill="#000000" stroke="none">
<path d="M2487 6634 c-1 -1 -38 -4 -82 -7 -93 -7 -164 -15 -185 -23 -8 -3 -36
-9 -62 -14 -77 -15 -235 -78 -319 -128 -372 -221 -533 -639 -418 -1087 54
-210 179 -424 345 -589 39 -39 216 -204 260 -243 21 -18 162 -146 214 -193
117 -107 215 -197 230 -210 9 -8 59 -53 110 -100 51 -47 101 -92 110 -100 10
-8 59 -53 110 -100 51 -47 98 -89 104 -95 6 -5 59 -53 116 -105 58 -52 116
-105 130 -117 24 -23 25 -23 5 -42 -11 -10 -101 -92 -200 -181 -99 -90 -220
-200 -269 -244 -49 -45 -94 -85 -100 -91 -26 -24 -222 -201 -236 -215 -9 -8
-56 -51 -105 -95 -49 -44 -113 -102 -143 -130 -30 -27 -62 -57 -72 -65 -58
-50 -202 -183 -249 -230 -164 -162 -274 -338 -339 -540 -43 -131 -55 -205 -55
-345 -1 -125 10 -194 45 -305 120 -376 478 -627 952 -667 107 -9 2092 -9 2221
0 122 8 222 28 340 68 256 87 431 225 551 436 161 283 158 656 -7 985 -90 179
-186 296 -403 493 -49 44 -94 85 -100 90 -34 32 -152 140 -225 205 -46 41 -98
89 -116 105 -25 24 -159 146 -220 200 -6 6 -35 33 -66 60 -172 157 -267 243
-379 345 -69 62 -132 119 -140 127 -13 13 -12 17 15 40 17 14 70 62 119 107
48 45 98 90 110 101 30 27 318 289 391 356 22 20 94 85 160 145 166 150 303
274 334 303 14 12 66 60 116 105 282 255 405 436 489 711 14 47 17 62 32 145
3 19 7 82 8 140 10 509 -348 897 -899 975 -22 3 -58 8 -80 12 -34 5 -2143 12
-2148 7z m2112 -445 c131 -18 181 -30 256 -62 248 -105 362 -323 310 -594 -40
-209 -138 -353 -400 -588 -55 -50 -127 -115 -160 -145 -33 -31 -75 -69 -94
-85 -18 -17 -48 -43 -65 -60 -18 -16 -75 -68 -127 -115 -51 -47 -116 -106
-144 -131 -27 -25 -70 -63 -94 -85 -24 -21 -51 -46 -60 -55 -9 -9 -90 -83
-181 -165 -210 -189 -257 -231 -298 -271 -19 -18 -37 -33 -41 -33 -6 1 -32 23
-136 119 -22 20 -89 81 -150 136 -60 55 -130 118 -155 141 -88 80 -297 270
-384 349 -49 44 -98 89 -110 100 -12 11 -64 58 -116 105 -420 377 -469 429
-547 585 -124 246 -103 507 54 668 46 47 129 102 188 124 17 6 39 14 50 19 35
13 169 41 220 46 72 8 2128 4 2184 -3z m-1058 -3021 c19 -18 77 -71 129 -118
52 -47 97 -87 100 -90 3 -3 57 -53 120 -110 63 -58 120 -109 126 -115 6 -5 46
-42 90 -81 43 -40 93 -84 109 -99 17 -15 73 -66 125 -114 52 -48 147 -134 210
-191 63 -57 120 -109 126 -114 7 -6 51 -47 100 -91 253 -229 344 -363 388
-572 13 -60 15 -205 3 -253 -32 -137 -136 -262 -269 -327 -74 -36 -188 -68
-293 -81 -75 -10 -2196 -9 -2231 1 -12 3 -39 8 -59 11 -151 24 -310 107 -387
203 -151 187 -141 472 27 728 76 114 95 134 479 480 49 44 96 87 105 96 16 16
193 175 265 240 21 18 46 41 55 50 9 9 66 60 126 115 61 54 112 101 115 104 9
9 121 111 215 196 50 45 110 100 135 122 25 23 47 42 50 42 3 0 22 -15 41 -32z"/>
</g>
</svg>
